# xmcd
# Track frame offsets:
# 150
# 5952
# 17307
# 33030
# 43152
# 49537
# 60645
# 63547
# 68906
# 73639
# 76645
# 89684
# 110873
# 131626
# 150661
# 167803
# 186447
# 209486
# 229526
# 266626
# 269121
# 273929
# 281433
# 289700
# 293301
# 297377
# 313340
#
# Disc length: 4399 seconds
# Revision: 0
# Processed by: cddbd v1.4PL0 Copyright (c) Steve Scherf et al.
# Submitted via: VisiTrax 2.9.3.171 - For more info visit www.synapsa.com
#
DISCID=9c112d1b
DTITLE=Ronnie Milsap - Ronnie Milsap Live
DYEAR=2002
DGENRE=Country
TTITLE0=Intorduction
TTITLE1=Don't You Know How Much I Love You
TTITLE2=Any Day Now
TTITLE3=What A Diffrence You Have Made In My Life
TTITLE4=I Wouldn't Have Missed It For The World
TTITLE5=It Was Almost Like A Song
TTITLE6=I'm A Stand By My Woman Man
TTITLE7=Pure Love
TTITLE8=There's No Gettin' Over Me
TTITLE9=What A Diffrence You Have Made In My Life "Reprise"
TTITLE10=A Woman In Love
TTITLE11=Lost In The Fifties Tonight
TTITLE12=Snap Your Fingers
TTITLE13=The Future Is Not What It Used To Be
TTITLE14=Happy, Happy Birthday Baby
TTITLE15=All Is Fair In Love And War
TTITLE16=My Babe
TTITLE17=Smoky Mountain Rain
TTITLE18=Stranger In My House "Piano Man Medley"
TTITLE19=I'm In Love Again
TTITLE20=Blueberry Hill
TTITLE21=What'd I Say
TTITLE22=Georgia On My Mind
TTITLE23=Last Date
TTITLE24=Whole Lotta Sakin' Goin' On
TTITLE25=Lucille
TTITLE26=America The Beautiful
EXTD=
EXTT0=
EXTT1=
EXTT2=
EXTT3=
EXTT4=
EXTT5=
EXTT6=
EXTT7=
EXTT8=
EXTT9=
EXTT10=
EXTT11=
EXTT12=
EXTT13=
EXTT14=
EXTT15=
EXTT16=
EXTT17=
EXTT18=
EXTT19=
EXTT20=
EXTT21=
EXTT22=
EXTT23=
EXTT24=
EXTT25=
EXTT26=
PLAYORDER=
